<svg xmlns="http://www.w3.org/2000/svg" width="50" height="25" viewBox="0 0 50 25">
  <g id="Polygon_1" data-name="Polygon 1" transform="translate(50 25) rotate(180)" fill="none">
    <path d="M22.172,2.828a4,4,0,0,1,5.657,0L43.172,18.172A4,4,0,0,1,40.343,25H9.657a4,4,0,0,1-2.828-6.828Z" stroke="none"/>
    <path d="M 25 3.656845092773438 C 24.46578025817871 3.656845092773438 23.96353912353516 3.864885330200195 23.58577919006348 4.242635726928711 L 8.242641448974609 19.58578491210938 C 7.365840911865234 20.46259498596191 7.689128875732422 21.47573471069336 7.809101104736328 21.76536560058594 C 7.929061889648438 22.05499649047852 8.416858673095703 22.99999618530273 9.656848907470703 22.99999618530273 L 40.3431510925293 22.99999618530273 C 41.5831298828125 22.99999618530273 42.07093048095703 22.05499649047852 42.19089889526367 21.76536560058594 C 42.31087112426758 21.47573471069336 42.63415908813477 20.46259498596191 41.75736236572266 19.58578491210938 L 26.41420936584473 4.242635726928711 C 26.03644943237305 3.864885330200195 25.53421020507812 3.656845092773438 25 3.656845092773438 M 24.99999809265137 1.656850814819336 C 26.0236873626709 1.656850814819336 27.0473747253418 2.047374725341797 27.82842063903809 2.828424453735352 L 43.17156982421875 18.17157554626465 C 45.69142913818359 20.69143486022949 43.90676116943359 24.99999618530273 40.3431510925293 24.99999618530273 L 9.656848907470703 24.99999618530273 C 6.093231201171875 24.99999618530273 4.308570861816406 20.69143486022949 6.82843017578125 18.17157554626465 L 22.17156982421875 2.828424453735352 C 22.9526195526123 2.047374725341797 23.97631072998047 1.656850814819336 24.99999809265137 1.656850814819336 Z" stroke="none" fill="#7924b3"/>
  </g>
</svg>
