<svg xmlns="http://www.w3.org/2000/svg" width="235.259" height="281.235" viewBox="0 0 235.259 281.235">
  <g id="elliecorn" transform="translate(-81.069 -65.03)">
    <path id="Path_1" data-name="Path 1" d="M129.678,109.9c.444,2.467-6.036-6.974-8.712-9.65C117.359,96.647,95.9,75.583,89.323,81.516c-13.664,17.039.5,45.812-1.576,64.489-.463,4.169-3.284,11.4-3.989,15.633-.827,4.962,6.088,4.972,4.463,9.847-1.007,3.021-6.175,33.109-4.819,33.788,2.569,1.284,2.135-5.408,4.433-3.874,2.875,1.915-2.524,23.189-2.019,27.23.573,4.58,7.61-6.523,9.671-6.523.841,0,1.3,4.915,1.453,5.811A45.67,45.67,0,0,1,98,234.181c-1.106,11.666,0,22.326,1.6,32.318,1.357,4.934,3.47,42.281,9.066,53.472,2.687,5.375,18.7,7.906,24.107-1.108,1.407-2.345.7-11.588,1.217-11.5,3.936.657,8.695,5.181,12.011,7.392,2.468,1.645,15.676-2.189,17.318,0,2.487,3.316,3.471,11.825,10.263,16.41s7,3.91,14.913.875c5.442-2.089,4.725-10.063,8.82-15.521,1.22-1.628,9.971,1.144,12,1.017,3.811-.238,17.538-1.3,20.847,1.182,6.038,4.529,3.37,20.035,19.478,13.322,6.422-2.676,8.3-9.128,13.733-12.481,11.979-7.39,20.794-16.04,14.487-46.9-.125-.612,28.716-13.268,35.136-34.528,2.711-8.973-15.629,7.127-11.745-.633,4.541-9.07,5.245-5.759,6.9-13.7,5.508-26.359-2-25.324-4.776-30.34-5.147-9.284-3.16,9.5-5.024,5.529-8.754-18.624-34.65-20.658-48.372-8.46-6.1,5.422,21.167,4.344,25.736,25.851s-8.81,41.6-11.96,40.1c-4.195-2-18.338-14.253-22.231-16.686-1.628-1.018-4.7-2.674-3.142-1.557,18.072,13.059-2.112-24.551-15.2-40.444-.5-.6,9.729,3.246,11.352,0-2.653-6.9-10.906-14.5-16.019-21.214-.732-.732-2.885-1.013-2.423-1.938.882-1.762,6.533,2.459,8.478-3.875,3.594-10.784-11.16-20.423-8.831-27.3,5.241-15.476,3.131-56.841-6.428-61.1-8.062-10.077-31.481,24.817-35.56,25.837a8.935,8.935,0,0,1-5.558-.669C162.705,103.856,128.887,105.5,129.678,109.9Z" transform="translate(1.047 8.265)" fill="#5e5e5e" stroke="rgba(0,0,0,0)" stroke-linecap="round" stroke-linejoin="round" stroke-miterlimit="10" stroke-width="4.021"/>
    <path id="Path_24" data-name="Path 24" d="M1751.161,778.936s1.539-13.505,4.978-20.191,2.8.136,6.027,3.3c1.281,1.255-2.591,17.987.894,10.641s7.346,11.815,7.346,14.126c0,3.833-3.913,7.459-3.913,7.459s-10.49,2.152-12.91-3.5A34.06,34.06,0,0,1,1751.161,778.936Z" transform="translate(-1518.352 -454.453)" fill="#fff"/>
    <path id="Path_2" data-name="Path 2" d="M121.525,130.6c-4.212,1.423-12.869-5.377-15.369-3.69s3.652,3.642,5.367,7.073c.955,1.911-2.62,10.1-.773,9.728,13.3-2.673-4.479,8.645-9.195,12.3-.878.68,5.941-.185,4.727,2.2-2.214,4.353-9.824,11.537-9.824,11.537s7.276-3.351,10.812-1.906c4.768,1.95-9.646,14.033-9.984,19.12-.658,9.885,7.746,1.5,11.922,1.179,7.69-.593,7.684,5.984,2.759,9.224s10.92,7.217.209,10.123c-.673.182,3.824,1.72,8.867,3.577,8.513,3.131,18.581,7.168,7.984,7.115-10.046-.05,16.848,14.164,4.955,11.976-11.973-2.2-20.982-3.5-28.421-5.192-3.161-.717-3.385,32.029-2.585,45.165.225,3.709-3.482-4.5-5.359,1.67-2.992,9.84,4.668,30.6,7.944,30.992,5.674.672,22.263,5.427,23.466-11.965.521-1.024,26.523,13.235,19.307,1.305,4.169,2.148,5.612,6,8.98,4.714,2,.723,5.341,15.973,7.7,17.4,8.362,5.058,16.368,2.3,21.76-2.269,2.827-2.395,3.785-5.8,2.454-13.992-1.942-11.969-6.4,2.211-10.105,0s-1.182-19.69-6.679-15.027c-5.11,4.334,11.077-22.8,6.041-22.789-16.533.037,29.923-27.292,21.738-29.7-12.831-3.773-57.779,3.871-36.964-4.561,4.41-1.786,17.118-6.5,12.572-10.156-4.379-3.524,10.747,1.633,14.184-1.97a28.278,28.278,0,0,0,4.76-7.043,52.243,52.243,0,0,0,3.923-11.824c.288.029-4.907-9.024-11.364-5.522s-8.412-22.195.586-14.134,21.615,9.5,11.717-5.337c-6.206-9.305-8.963-32.774-9.176-16.77-.137,10.4-1.535,2.061-6.019-3.513-2.418-3-7.711-2.848-9.716-3.85-6.048-3.022,7.864-1.125,6.406-3.385-1.7-2.629-6.172-6.963-4.947-6.963.645,0,1.821-2.93,2.545-3.895,1.355-1.807-13.546,4.176-14.6,1.724-1.756-4.094,3.6-22.158-.414-18.621a20.993,20.993,0,0,0-5.279,24.835c.388.9-12.014-3.168-12.1-.208-.089,2.984,12.172,14.148,8.2,11.968-5.663-3.107-15.423-5.99-22.944-1.406-1.372.835,10.1-9.356,8.839-10.4-3.885-3.235-12.321,10.506-11.088-2.642.412-4.4-.633-13.311-.633-13.311s-2.145-12.43-4.192-10.891c-5.866,4.407-3.808,6.078-1.511,8.621C124.295,122.643,125.736,129.176,121.525,130.6Z" transform="translate(7.06 27.291)" fill="rgba(255,255,255,0.96)" stroke="rgba(0,0,0,0)" stroke-linecap="round" stroke-linejoin="round" stroke-miterlimit="10" stroke-width="4.021"/>
    <path id="Path_26" data-name="Path 26" d="M1664.825,799.617c-.834-.834-16.525-15.843-21.586-20.723s-12.02-11.636-13.271,6.084,3.207,41.692,3.207,41.692,7.952-10.534,12.121-13.036.048-10.118,1.241-10.583,7.246,4.795,6.2,0-.7-6.629,7.131-2.56C1664.237,802.759,1664.825,799.617,1664.825,799.617Z" transform="translate(-1541.443 -677.838)" fill="#fff"/>
    <path id="Path_27" data-name="Path 27" d="M179.876,128.562s13.815-19.735,21.586-26.4,16.127-8.758,15.263,17.638-5.674,40.089-5.674,40.089l-14.185-14.925s.247-5.057-.987-6.291-5.427-1.85-5.427-1.85,3.947-3.207,5.427-5.8a6.343,6.343,0,0,0,.987-4.441s-6.044,5.3-7.4,5.181-4.071-3.207-4.071-3.207Z" fill="#fff"/>
    <g id="Group_3" data-name="Group 3" transform="translate(82.557 66.78)">
      <path id="Path_3" data-name="Path 3" d="M87.814,143.791c-1.168-3.5-10.849-58.275,2.686-62.662,11.183-3.624,33.305,23.631,41.281,31.606" transform="translate(-81.438 -57.955)" fill="none" stroke="#000" stroke-linecap="round" stroke-linejoin="round" stroke-miterlimit="10" stroke-width="3"/>
      <path id="Path_4" data-name="Path 4" d="M112.824,100.479c7.235-3.091,29.261-5.365,43.2-1.659" transform="translate(-64.807 -49.409)" fill="none" stroke="#000" stroke-linecap="round" stroke-linejoin="round" stroke-miterlimit="10" stroke-width="3"/>
      <path id="Path_5" data-name="Path 5" d="M136.876,116.446c.273-.96,4.751-7.6,10.3-14.627s25.161-28.973,34.361-18.1c8.743,10.336,6.639,51.907-.372,70.894" transform="translate(-50.105 -58.167)" fill="none" stroke="#000" stroke-linecap="round" stroke-linejoin="round" stroke-miterlimit="10" stroke-width="3"/>
      <path id="Path_6" data-name="Path 6" d="M90.243,121.248c-1.863-3.727-3.208,6.192-4.473,12.1-5.307,24.763,6.927-11.53,1.646,26.755-.8,5.768-1.33,11.591-2.47,17.287-.6,3.008-3.816,11.225-1.646,9.056,2.293-2.294,4.534-7.417,6.586-10.291.143-.2-2.528,19.755-3.293,25.108-.071.5-.94,5.786-.823,5.764,2.413-.484,5.044-5.457,6.586-7,6.9-6.9,2.334,3.158,5.351,6.174" transform="translate(-82.557 -34.727)" fill="none" stroke="#000" stroke-linecap="round" stroke-linejoin="round" stroke-miterlimit="10" stroke-width="3"/>
      <path id="Path_7" data-name="Path 7" d="M94.7,173.093c-2.915,5.831,2.058,59.955,2.058,34.163" transform="translate(-77.496 -1.9)" fill="none" stroke="#000" stroke-linecap="round" stroke-linejoin="round" stroke-miterlimit="10" stroke-width="3"/>
      <path id="Path_8" data-name="Path 8" d="M97.709,192.16c2.544,8.481,9.087,58.764,18.523,30.46.578-1.736.554,3.652,1.235,5.351a47.056,47.056,0,0,0,9.152,13.087c4.169,3.849,15.435,9.909,23.572,10.1.994.027-7.217-5.1-4.811-6.414,1.131-.615,9.942,5.131,9.942,5.131" transform="translate(-73.504 8.125)" fill="none" stroke="#000" stroke-linecap="round" stroke-linejoin="round" stroke-miterlimit="10" stroke-width="3"/>
      <path id="Path_9" data-name="Path 9" d="M95.847,195.51c-.137.275-.4.518-.412.823-.1,1.784,4.721,50.677,7.406,54.257,5.551,4.687,14.062,5.921,23.19,2.344,2.65-2.141,3.224-7.228,3.454-13.075" transform="translate(-76.17 10.126)" fill="none" stroke="#000" stroke-linecap="round" stroke-linejoin="round" stroke-miterlimit="10" stroke-width="3"/>
      <path id="Path_10" data-name="Path 10" d="M130.861,205.044c0,12.867,3.185,26.873,5.59,35.693s4.169,17.4,9.942,19.323c3.528,1.283,16,1,18.281-1.283,7.291-7.291,6.114-37.267,6.114-46.324" transform="translate(-54.793 15.822)" fill="none" stroke="#000" stroke-linecap="round" stroke-linejoin="round" stroke-miterlimit="10" stroke-width="3"/>
      <path id="Path_11" data-name="Path 11" d="M166.756,120.868c2.27,4.538,13,26.257,7.372,30.009-1.128.751-7.791-4.126-6.243,0,1.419,3.781,18.79,19.942,17.391,22.741-.256.51-11.65-1.447-10.7.446,3.168,6.337,9.375,12.279,13.377,18.283,1.088,1.633,2.241,13.214,7.581,19.621.134.161,2.415,2.811,2.23,3.121-1.053,1.754-9.811,2.372-9.811-.446,0-2.557,4.075,3.1,6.244,4.458,4.764,2.978,9.458,6.033,14.268,8.918,13.765,8.259,21.556,20.722,22.743,36.119,1.5,19.465-3.43,21.461-18.728,31.661-7.211,4.807-8.96,15.819-22.3,12.485-8.661-2.166-9.783-24.121-5.351-30.77" transform="translate(-32.254 -34.466)" fill="none" stroke="#000" stroke-linecap="round" stroke-linejoin="round" stroke-miterlimit="10" stroke-width="3"/>
      <path id="Path_12" data-name="Path 12" d="M153.315,228.608c9.771,0,23.653,1.877,33.195,1.877" transform="translate(-37.502 29.956)" fill="none" stroke="#000" stroke-linecap="round" stroke-linejoin="round" stroke-miterlimit="10" stroke-width="3"/>
      <path id="Path_13" data-name="Path 13" d="M203.411,217.287c5.871-8.383,9.856-14.39,11.31-21.687,2.254-11.3.28-22.327-5.81-28.338s-17.452-11.537-21.846-14.687c-1.851-1.327,19.738-7.74,24.575-7.7,15.746.144,23.4,11.163,24.466,16.364.158.781,2.947-11.674,3.107-11.482,20.631,24.905.046,49.71.553,50.721,1.011,2.022,10.962-7.9,11.585-2.283.95,8.557-11.249,26.116-33.995,34.2" transform="translate(-20.188 -20.122)" fill="none" stroke="#000" stroke-linecap="round" stroke-linejoin="round" stroke-miterlimit="10" stroke-width="3"/>
      <path id="Path_14" data-name="Path 14" d="M120.138,139.644c5.016-3.075,18.31-.843,20.45,2.422,4.105,6.264-7.474,15.853-11.31,15.861C125.691,157.933,110.971,145.262,120.138,139.644Z" transform="translate(-61.874 -24.124)" stroke="#000" stroke-linecap="round" stroke-linejoin="round" stroke-miterlimit="10" stroke-width="4.021"/>
      <path id="Path_15" data-name="Path 15" d="M112.179,103.712c-3.049-.508-5.728-3.388-8.543-3.7-2.483-.276-.157,5.109-1.141,7.4-.972,2.27-6.02-4.887-5.695,0,.151,2.267,2.252,5.994-.57,7.4" transform="translate(-74.387 -46.933)" fill="none" stroke="#000" stroke-linecap="round" stroke-linejoin="round" stroke-miterlimit="10" stroke-width="2.071"/>
      <path id="Path_16" data-name="Path 16" d="M147.751,106.8c2.687,5.374,5.992.182,9.684-2.278,1.61-1.075.022,4.145-1.141,5.695-.126.169-4.695,4.2-4.556,4.272,5.72,2.859,5.981-1.762,5.981,7.974" transform="translate(-43.608 -44.321)" fill="none" stroke="#000" stroke-linecap="round" stroke-linejoin="round" stroke-miterlimit="10" stroke-width="2.071"/>
      <path id="Path_18" data-name="Path 18" d="M124.31,127.918c-6.4-2.171-4.663-28.313-4.671-37.945-.006-5.738.772-23.081,3.821-23.192,5.2-.189,7.559,17.782,8.863,24.446,1.971,10.089,4.564,21.379,3.294,32.814C135.235,127.477,129.054,129.53,124.31,127.918Z" transform="translate(-60.528 -66.78)" fill="rgba(255,255,255,0)" stroke="#000" stroke-linecap="round" stroke-linejoin="round" stroke-miterlimit="10" stroke-width="3.5"/>
      <path id="Path_19" data-name="Path 19" d="M108.761,129.979c1.361-5.164,6.727-2.613,5.065,1.815C112.3,135.868,107.679,134.078,108.761,129.979Z" transform="translate(-66.999 -30.737)" stroke="#000" stroke-linecap="round" stroke-linejoin="round" stroke-miterlimit="10" stroke-width="4.021"/>
      <path id="Path_20" data-name="Path 20" d="M138.93,132.3c-.765-5,4.2-5.634,5.559-1.551S139.724,137.483,138.93,132.3Z" transform="translate(-48.926 -30.161)" stroke="#000" stroke-linecap="round" stroke-linejoin="round" stroke-miterlimit="10" stroke-width="4.021"/>
      <g id="Group_2" data-name="Group 2" transform="translate(59.503 2.409)">
        <path id="Path_21" data-name="Path 21" d="M132.386,89.463c-1.252-1.365-7.094,4.287-11.182,8.114-1.861,1.744.147,11.7,1.53,15.141.5,1.256,9.137.85,9.987-1.807C133.666,107.961,134,91.218,132.386,89.463Z" transform="translate(-119.42 -55.762)" fill="#ad68dd" stroke="rgba(0,0,0,0)" stroke-linecap="round" stroke-linejoin="round" stroke-miterlimit="10" stroke-width="4.021"/>
        <path id="Path_22" data-name="Path 22" d="M129.349,78.573c-1.252-1.365-4.2,4.526-8.287,8.353-1.863,1.744-1.454,14.619-.07,18.063.5,1.255,10.53-5.268,11.38-7.923C133.317,94.114,130.959,80.328,129.349,78.573Z" transform="translate(-119.806 -62.264)" fill="#5eddc6" stroke="rgba(0,0,0,0)" stroke-linecap="round" stroke-linejoin="round" stroke-miterlimit="10" stroke-width="4.021"/>
        <path id="Path_23" data-name="Path 23" d="M129.713,84.483c.516,2.923-8.259,11.7-9.431,9.294-1.244-2.548.752-23.668,2.8-25.282,2.578-2.033,6.3,11.469,6.6,15.979" transform="translate(-119.752 -69.288)" fill="#d873cc" stroke="rgba(0,0,0,0)" stroke-linecap="round" stroke-linejoin="round" stroke-miterlimit="10" stroke-width="4.021"/>
      </g>
    </g>
    <path id="Path_25" data-name="Path 25" d="M1683.49,886.974c4.849,7.955,28.13,10.1,35.681.487" transform="matrix(0.999, -0.035, 0.035, 0.999, -1580.501, -621.334)" fill="none" stroke="#000" stroke-linecap="round" stroke-width="3.5"/>
  </g>
</svg>
